<svg version="1.1" id="Layer_1" xmlns="http://www.w3.org/2000/svg" xmlns:xlink="http://www.w3.org/1999/xlink" x="0px" y="0px"
	 width="100%" viewBox="0 0 199 108" enable-background="new 0 0 199 108" xml:space="preserve">
<path fill="transparent" opacity="1.000000" stroke="none" 
	d="
M128.000000,109.000000 
	C86.500015,109.000000 45.499901,108.959595 4.500290,109.083763 
	C1.517022,109.092789 0.903691,108.483772 0.915515,105.499702 
	C1.048917,71.833572 1.048898,38.166531 0.915541,4.500403 
	C0.903721,1.516642 1.517343,0.912421 4.500069,0.917484 
	C68.499863,1.026129 132.499939,1.026111 196.499741,0.917529 
	C199.481903,0.912469 200.096344,1.515891 200.084518,4.500205 
	C199.951080,38.166332 199.951126,71.833374 200.084442,105.499504 
	C200.096252,108.482994 199.485840,109.106934 196.499573,109.086182 
	C173.833939,108.928658 151.166718,109.000000 128.000000,109.000000 
z"/>
<path fill="#F5DC8D" opacity="1.000000" stroke="none" 
	d="
M74.470970,66.251709 
	C74.167091,50.916298 74.093613,35.933281 73.996140,20.950420 
	C73.974632,17.643808 74.117355,14.310078 72.854797,10.727209 
	C72.750366,9.946277 72.599663,9.617972 72.062256,9.265314 
	C71.795319,9.183609 71.947723,9.077508 71.885910,9.146797 
	C71.128174,7.846973 68.492592,8.162726 69.213615,5.584120 
	C72.829063,4.656672 76.162163,5.155487 79.889603,4.998729 
	C81.414070,4.981813 82.527725,5.031829 84.020798,4.638363 
	C85.831444,4.502559 87.237015,4.440681 88.980103,4.857307 
	C89.769920,6.413090 89.232513,7.328318 87.791809,8.210312 
	C83.547081,9.412928 83.001884,12.301336 83.026192,15.741417 
	C83.141472,32.055916 83.246872,48.371304 82.862930,65.108215 
	C82.472816,66.393898 81.867439,66.987289 80.698067,67.603157 
	C78.334534,67.875381 76.426994,67.653221 74.470970,66.251709 
z"/>
<path fill="#A78339" opacity="1.000000" stroke="none" 
	d="
M117.229279,41.385227 
	C117.447212,36.398293 117.518478,31.719360 116.802132,26.600639 
	C117.062485,24.793129 116.929352,23.424318 116.122772,22.359320 
	C113.020645,18.263346 115.562767,14.170363 116.139488,10.139460 
	C116.452248,7.953542 118.597603,8.484899 120.531311,8.805958 
	C121.193077,9.009675 121.502663,9.090322 121.930183,9.478325 
	C122.163132,9.860569 122.248703,10.048473 122.643890,10.228603 
	C124.986809,11.126866 126.342110,12.815862 127.913467,14.703701 
	C127.409271,19.550875 126.516426,24.039013 125.356201,28.489599 
	C124.584045,31.451582 125.016861,34.362148 126.710068,37.046494 
	C127.943596,39.002071 128.973358,41.078529 129.189499,43.746292 
	C126.698631,49.397892 122.660973,53.080486 117.273590,55.794666 
	C116.745293,55.762123 116.561592,55.715347 116.194038,55.885471 
	C116.010178,56.102375 116.027527,56.032757 116.061150,56.045258 
	C112.776657,56.937046 112.981453,54.796822 113.474083,52.786594 
	C113.893608,51.074730 114.908531,49.518318 114.892288,47.280205 
	C115.004150,46.342937 115.145660,45.802383 115.528351,45.116287 
	C116.896095,44.163776 116.960457,42.863094 117.229279,41.385227 
z"/>
<path fill="#EBD288" opacity="1.000000" stroke="none" 
	d="
M63.179634,71.433624 
	C54.232101,69.831787 45.503994,67.971626 36.388832,66.010254 
	C35.842442,65.802750 35.683109,65.696465 35.259209,65.702156 
	C30.863596,65.739517 26.753956,64.811584 22.204344,65.470787 
	C21.369801,65.169708 20.943527,65.170128 20.252674,65.707039 
	C19.977819,65.933571 19.949909,65.993866 19.925226,65.971634 
	C19.263678,66.771797 18.291637,66.368782 17.257721,66.830032 
	C16.550901,67.378059 16.081438,67.703369 15.329106,68.099731 
	C13.699347,67.359177 13.467546,66.047112 13.527105,64.226471 
	C13.664892,63.549934 13.734818,63.281673 13.997572,62.643806 
	C14.541944,61.839664 14.925405,61.435394 15.685203,60.820229 
	C23.632856,57.386707 31.441879,58.223553 39.629005,59.610596 
	C41.747238,60.181190 43.504265,60.532066 45.642391,60.848991 
	C47.925865,60.090183 49.644150,60.829823 51.688530,61.727425 
	C52.384079,62.142391 52.763840,62.317379 53.458935,62.491852 
	C54.367226,62.221256 54.955807,62.180180 55.776962,62.721020 
	C56.400841,63.083794 56.784775,63.250565 57.483780,63.411011 
	C58.402824,63.183762 58.991699,63.176140 59.796364,63.719540 
	C60.037659,63.910126 59.875462,64.050522 59.884624,64.157387 
	C59.954285,65.688148 59.574371,67.186279 61.361000,68.061554 
	C62.531254,68.634872 63.589909,69.571625 63.179634,71.433624 
z"/>
<path fill="#9E7A32" opacity="1.000000" stroke="none" 
	d="
M129.327682,43.841904 
	C123.820358,38.321243 121.048103,31.969090 124.428329,24.225431 
	C125.726868,21.250639 124.181320,17.371355 127.719215,15.015676 
	C134.775269,24.200386 134.297287,33.789062 129.327682,43.841904 
z"/>
<path fill="#EAC283" opacity="1.000000" stroke="none" 
	d="
M74.387283,104.596039 
	C73.573280,104.713310 73.136734,104.759941 72.373505,104.754669 
	C70.468269,103.175293 72.367355,101.880753 72.321136,100.129677 
	C74.275497,92.585693 73.923828,85.183540 74.145393,77.351555 
	C75.369743,73.607109 71.587280,71.077148 73.157852,67.555382 
	C74.815933,66.885704 76.078308,67.080833 77.568207,68.107986 
	C81.067001,72.150978 81.869476,76.623901 81.477081,81.361176 
	C80.985466,87.296219 81.122398,93.220810 81.386383,99.155441 
	C81.482231,101.309998 80.646187,103.042557 78.209259,104.147263 
	C76.836739,104.602501 75.792656,104.452423 74.387283,104.596039 
z"/>
<path fill="#1D150A" opacity="1.000000" stroke="none" 
	d="
M107.216492,69.083092 
	C108.004066,66.458870 109.371719,66.162735 111.734245,67.044067 
	C116.928925,68.981949 122.382782,67.937782 127.741013,67.680458 
	C127.958099,67.670036 128.140381,66.934593 128.173874,66.263123 
	C127.922043,65.708015 127.835205,65.426727 127.995514,64.780579 
	C132.337402,62.436043 136.847733,64.269302 141.436096,62.994720 
	C145.517746,62.511765 149.239273,62.336292 153.077179,60.758919 
	C156.806808,59.943539 160.049362,58.840519 163.612839,57.592278 
	C165.663254,57.605251 166.907486,56.425217 168.686844,55.742344 
	C170.257675,54.603226 171.636856,53.828068 173.540695,53.365074 
	C174.112503,53.364666 174.340240,53.404949 174.861511,53.629360 
	C175.242065,54.027035 175.329071,54.240582 175.226852,54.743675 
	C172.560165,58.016991 171.419724,62.423660 166.247650,62.946632 
	C161.559006,63.339306 158.148956,66.270012 153.672653,67.275986 
	C152.358200,67.513046 151.421356,67.760445 150.169067,68.284149 
	C148.520538,68.586266 147.372498,69.286293 145.662613,69.444214 
	C141.335632,69.533989 137.581696,71.230568 133.167664,70.638443 
	C128.960602,70.994629 125.172585,71.080894 120.941132,70.949615 
	C119.344078,70.678101 118.183273,70.670898 116.578903,70.870667 
	C115.841354,70.822250 115.546127,70.795166 114.805237,70.744217 
	C111.964584,70.786674 109.544586,70.992966 107.216492,69.083092 
z"/>
<path fill="#E2B869" opacity="1.000000" stroke="none" 
	d="
M86.704216,7.355909 
	C87.588638,6.669577 88.147804,6.324522 88.840340,5.751842 
	C88.809189,4.857677 89.061890,4.521917 90.156265,4.541586 
	C92.322380,5.527635 94.692421,5.850516 94.842392,8.909342 
	C94.485550,10.077417 93.888840,10.452499 92.731293,10.672734 
	C92.201332,10.913363 92.011696,11.002781 91.508217,11.112208 
	C89.939178,12.763607 90.536995,14.662805 90.529648,16.429449 
	C90.466057,31.709873 90.552078,46.990841 90.454887,62.271072 
	C90.435654,65.295082 90.571869,68.859154 85.250290,66.734978 
	C83.578720,63.987278 84.902298,61.530632 84.850655,59.082981 
	C84.552872,44.969181 85.325005,30.848291 84.427269,16.729450 
	C84.235039,13.706246 84.217621,10.375063 86.704216,7.355909 
z"/>
<path fill="#E8CA96" opacity="1.000000" stroke="none" 
	d="
M77.265038,104.054535 
	C79.852257,101.861275 79.074768,99.180305 79.250938,96.424316 
	C79.541603,91.877319 78.851692,87.357101 79.724342,82.730247 
	C80.544167,78.383476 79.746986,73.670891 77.033943,69.318939 
	C78.184769,67.657463 79.646500,67.957504 81.507538,68.539299 
	C82.734268,69.655167 83.783348,70.365150 84.295303,72.044067 
	C85.069626,81.261200 84.661781,90.068565 85.463135,98.829857 
	C85.611977,100.457214 85.733299,102.173759 84.360306,103.960175 
	C81.993279,104.382591 79.982712,104.509651 77.541168,104.590309 
	C77.110184,104.543900 77.038559,104.090790 77.265038,104.054535 
z"/>
<path fill="#E2D1B5" opacity="1.000000" stroke="none" 
	d="
M83.235291,72.326324 
	C82.479774,71.472565 81.935295,70.961044 81.215958,70.229599 
	C83.941292,67.399094 86.758995,68.507187 89.822449,70.530685 
	C91.076477,73.029938 93.516632,74.754250 91.939491,77.995361 
	C90.336601,82.962425 91.009171,87.617538 91.240738,92.630302 
	C90.823044,95.145477 91.231163,97.204239 91.949265,99.605354 
	C91.433914,101.547180 91.661438,103.568771 89.239037,104.216263 
	C88.295639,104.567184 87.452766,104.606895 86.319778,104.511490 
	C84.373177,96.449448 85.302223,88.368530 84.702538,80.372086 
	C84.503342,77.715935 84.201820,75.184235 83.235291,72.326324 
z"/>
<path fill="#D7BF82" opacity="1.000000" stroke="none" 
	d="
M14.215990,62.395088 
	C14.702145,64.088318 14.856929,65.655861 15.028976,67.697098 
	C12.227508,70.853279 9.388116,73.520073 7.930508,77.669846 
	C7.234682,78.710678 6.962346,79.496155 7.295625,80.714027 
	C7.512565,81.464798 7.636189,81.906418 7.751225,82.693298 
	C7.502719,83.555244 7.475530,84.075668 7.931919,84.764038 
	C8.148738,84.927277 8.062516,84.932808 8.089050,84.898712 
	C8.388763,85.399101 8.488647,85.990456 8.888842,86.756516 
	C10.709560,88.519051 11.141359,91.031143 13.504183,92.420059 
	C12.961580,93.639252 12.010404,93.790611 10.462917,93.252594 
	C3.680082,87.249832 1.449702,80.488373 5.049491,71.977402 
	C5.110356,71.179344 5.273861,70.787415 5.803370,70.229797 
	C6.673342,69.283066 7.298812,68.552719 8.002781,67.540344 
	C8.225834,66.908157 8.425420,66.593681 8.932180,66.177856 
	C9.175300,66.035004 9.034731,66.034897 9.036897,66.105148 
	C9.206603,65.840408 9.437990,65.557663 9.977751,65.195587 
	C10.778892,64.588036 11.335489,64.112053 11.967541,63.361649 
	C12.509757,62.483349 13.122117,62.207325 14.215990,62.395088 
z"/>
<path fill="#1D150A" opacity="1.000000" stroke="none" 
	d="
M99.929092,73.679855 
	C99.959236,72.406471 100.002190,71.525589 100.063675,70.204102 
	C100.433220,69.361656 100.865463,69.088730 101.766556,68.923248 
	C105.701752,70.500916 109.518295,70.602776 113.688095,70.902000 
	C114.585747,71.010338 115.100746,71.073944 116.017426,71.079224 
	C117.225121,71.017776 118.032845,71.025841 119.242012,71.241272 
	C123.012482,70.904442 126.388184,71.046417 130.172241,70.912605 
	C134.721466,71.869446 138.641403,70.300354 143.056000,69.793701 
	C144.268295,69.609497 145.075516,69.634628 146.243851,69.972229 
	C147.061874,70.429443 147.393219,70.825531 147.658417,71.700928 
	C147.675049,72.322838 147.633301,72.568718 147.411774,73.137344 
	C146.214478,74.493538 144.668335,74.651375 143.304932,75.786575 
	C142.317154,76.143776 141.634079,76.179344 140.628555,76.028938 
	C139.753677,75.801292 139.191803,75.627808 138.334747,76.131195 
	C137.122467,76.738281 136.140182,76.885750 134.728485,76.943962 
	C129.596207,76.366348 124.876236,76.085762 119.774124,77.232361 
	C118.065971,77.968765 116.667107,78.032410 114.848808,78.038635 
	C112.331444,77.947556 110.508408,76.376251 107.912338,76.964493 
	C107.269341,77.095810 107.007317,77.124153 106.349792,77.145874 
	C105.161903,77.072266 104.428749,76.779564 103.296585,76.472000 
	C101.542618,76.109016 100.518211,75.376419 99.929092,73.679855 
z"/>
<path fill="#A1864E" opacity="1.000000" stroke="none" 
	d="
M139.707581,74.679985 
	C140.716156,74.815338 141.476105,74.871887 142.617157,74.908875 
	C143.993454,73.957016 145.209778,73.551491 146.836304,73.281845 
	C147.137863,73.158928 147.118332,73.234474 147.155930,73.244896 
	C148.285370,71.292595 149.797928,70.246109 152.498596,71.195801 
	C153.043228,71.617386 153.220840,71.830978 153.493423,72.445694 
	C151.656158,76.801582 147.332108,76.129272 143.782349,77.784164 
	C143.390366,77.855186 143.266098,77.608955 143.137772,77.659470 
	C141.144043,79.746132 138.488251,79.071548 135.812836,79.783981 
	C135.415466,79.875504 135.455215,79.627686 135.332764,79.600197 
	C131.426834,81.449615 127.236084,80.790573 122.821228,81.463722 
	C118.347847,78.374939 118.358498,77.729591 122.891685,75.677795 
	C127.065491,75.394096 130.823761,75.623238 135.000946,75.337250 
	C136.387589,75.187012 137.350418,75.124054 138.664520,74.968750 
	C139.163513,74.784668 139.311218,74.692932 139.707581,74.679985 
z"/>
<path fill="#E9D0A8" opacity="1.000000" stroke="none" 
	d="
M83.017387,72.454224 
	C86.794670,74.623283 86.571953,78.609909 86.698845,82.548393 
	C86.925819,89.593224 87.689407,96.641861 86.131920,104.011757 
	C85.569153,104.432701 85.108635,104.489029 84.325974,104.400444 
	C82.775299,93.840263 82.973755,83.379745 83.017387,72.454224 
z"/>
<path fill="#141105" opacity="1.000000" stroke="none" 
	d="
M128.061249,64.880981 
	C127.997192,65.194054 128.000931,65.591835 128.004913,65.790565 
	C125.528603,65.970947 123.047234,65.990479 120.568512,65.918442 
	C119.308594,65.881813 118.252853,65.404449 118.300400,63.890656 
	C118.338669,62.672298 119.227150,62.255516 120.283157,62.089424 
	C122.562202,61.730972 124.835350,61.137215 127.122337,61.077530 
	C129.911438,61.004730 132.127502,60.730885 133.646591,57.779392 
	C134.727112,55.680054 137.282806,55.852047 139.897125,56.449078 
	C143.484787,56.776043 146.608765,56.283875 150.091858,55.939091 
	C150.664169,56.174126 150.880600,56.302711 151.350189,56.717453 
	C151.974396,57.714252 152.058762,58.462917 151.753647,59.599857 
	C151.150604,60.600933 150.503784,60.979744 149.439377,61.369476 
	C148.186203,61.681179 147.258301,61.794815 146.056259,62.246376 
	C145.043869,62.497807 144.349319,62.492878 143.313629,62.550968 
	C138.159561,64.273148 132.899811,62.608250 128.061249,64.880981 
z"/>
<path fill="#E4B868" opacity="1.000000" stroke="none" 
	d="
M73.080933,67.596069 
	C74.769226,70.538216 76.323471,73.159019 74.412735,76.640282 
	C73.928970,76.084969 73.634895,75.287811 73.099686,74.268761 
	C71.396957,72.683052 69.458481,72.942665 67.388596,72.642654 
	C65.872765,72.492516 64.684029,72.235840 63.227749,71.835556 
	C61.296902,68.902641 57.327961,69.192261 55.727425,66.151314 
	C56.288372,64.311935 58.289845,65.493073 59.619518,64.446198 
	C60.327400,64.279404 60.761013,64.294556 61.522465,64.296509 
	C63.807262,64.299767 65.798897,64.150276 67.738976,65.667587 
	C68.391388,66.036957 68.790375,66.199333 69.513695,66.370209 
	C71.100716,66.055328 72.262245,66.123383 73.080933,67.596069 
z"/>
<path fill="#D6CCB9" opacity="1.000000" stroke="none" 
	d="
M96.766640,5.506025 
	C101.428185,4.814787 105.826363,4.790343 110.568695,5.910595 
	C112.330826,8.998425 110.711761,11.388641 109.192986,14.032598 
	C105.246063,12.925072 101.790573,11.004402 97.411522,10.748688 
	C95.462494,9.151678 95.477173,7.496649 96.766640,5.506025 
z"/>
<path fill="#291F0F" opacity="1.000000" stroke="none" 
	d="
M151.260620,60.103294 
	C150.996780,59.172791 151.009338,58.487717 151.004059,57.460388 
	C152.463547,53.773972 156.334793,54.770412 158.958557,52.747063 
	C160.859222,52.088223 162.450409,51.649517 164.276642,50.842415 
	C168.160004,49.403053 171.599564,47.848133 174.925995,45.344231 
	C176.767685,44.297729 178.338333,43.452457 179.960358,42.063850 
	C182.035950,40.417591 183.758942,38.805473 186.561157,38.677155 
	C186.908325,39.280106 186.920380,39.781879 186.940155,40.660049 
	C187.589386,41.876984 187.524277,42.799156 187.121201,44.073776 
	C186.595871,45.009975 186.070618,45.489738 185.309845,46.229370 
	C184.898819,46.643211 184.729080,46.802406 184.256622,47.131615 
	C180.290741,48.598846 177.557816,51.600964 173.541824,52.960129 
	C171.729630,53.613480 170.335999,54.374016 168.584564,55.177067 
	C167.210724,55.798553 166.200333,56.428440 164.636383,56.497883 
	C161.268372,57.827999 158.315125,59.283794 154.778397,60.236603 
	C153.465378,60.474541 152.503601,60.701614 151.260620,60.103294 
z"/>
<path fill="#E2DDD3" opacity="1.000000" stroke="none" 
	d="
M99.502441,73.292679 
	C100.749115,73.826820 101.581963,74.366272 102.700699,75.023041 
	C104.174744,76.338577 104.411301,77.676834 103.281052,79.500916 
	C101.831894,79.764786 100.681602,79.699966 99.134415,79.460236 
	C98.335289,79.504616 97.912392,79.569016 97.203201,79.249146 
	C95.571228,79.034622 94.201767,79.025879 92.422432,78.984985 
	C91.798218,78.849564 91.583878,78.746284 91.188950,78.335159 
	C91.041954,76.104622 91.134094,74.169823 89.935471,72.253784 
	C90.140503,71.810982 90.280502,71.629311 90.704758,71.641449 
	C93.688873,72.322853 96.388741,72.810432 99.502441,73.292679 
z"/>
<path fill="#E7C381" opacity="1.000000" stroke="none" 
	d="
M84.808975,65.665787 
	C88.524300,67.262482 89.043724,65.566635 89.027008,62.643986 
	C88.939476,47.341660 88.953300,32.038425 89.025635,16.735947 
	C89.034378,14.885283 88.159615,12.650749 90.811127,11.227700 
	C91.194374,11.132217 91.084602,11.558493 91.100647,11.777998 
	C91.187584,12.301059 91.258476,12.604613 91.274048,13.372638 
	C90.725861,30.074469 91.151047,46.316067 90.981003,62.554672 
	C90.955856,64.956322 91.604477,67.660172 88.359329,69.302315 
	C85.194839,69.606506 82.661690,69.037178 80.186539,67.079750 
	C80.439049,66.429436 80.892738,66.169197 81.613968,65.877731 
	C82.640869,65.152763 83.519730,65.106667 84.808975,65.665787 
z"/>
<path fill="#AD8D48" opacity="1.000000" stroke="none" 
	d="
M120.623215,8.796864 
	C119.049728,9.068431 118.343117,9.244607 117.441315,11.644718 
	C115.598022,16.550632 117.774780,20.997423 117.038803,25.872025 
	C115.639450,23.985428 114.501595,21.828297 113.266579,19.351467 
	C113.588104,16.780249 112.009750,15.034785 111.619034,12.968359 
	C111.018227,9.790777 111.850510,7.825556 115.588516,7.274481 
	C117.601021,6.942149 118.924202,7.971264 120.623215,8.796864 
z"/>
<path fill="#5F481B" opacity="1.000000" stroke="none" 
	d="
M87.130356,69.107300 
	C89.025650,67.973663 90.162560,66.888664 90.130104,64.004326 
	C89.940056,47.116482 90.092125,30.224794 90.357239,12.956947 
	C91.913200,13.295871 91.554222,14.539776 91.544830,15.668378 
	C91.402451,32.784985 91.599693,49.902237 91.258377,67.480446 
	C91.070007,67.942078 90.959457,68.354637 90.934052,68.566681 
	C89.936646,69.900055 88.774628,70.030075 87.130356,69.107300 
z"/>
<path fill="#0B0200" opacity="1.000000" stroke="none" 
	d="
M91.307686,67.611916 
	C90.987663,49.813549 90.905319,31.685020 90.704330,13.067991 
	C90.585693,12.579491 90.771614,12.216164 90.944153,12.106833 
	C91.515419,12.708167 92.266579,13.421445 92.261330,14.129114 
	C92.131126,31.692324 91.921417,49.254940 91.717789,66.817574 
	C91.715988,66.972946 91.605247,67.127052 91.307686,67.611916 
z"/>
<path fill="#F0DC9B" opacity="1.000000" stroke="none" 
	d="
M119.221481,72.547104 
	C118.185928,72.737175 117.423401,72.712692 116.298874,72.563431 
	C115.502312,72.487694 115.066444,72.519058 114.312271,72.618248 
	C110.261345,71.898026 106.182533,72.556808 102.475357,69.968140 
	C101.711845,69.560112 101.513885,69.157883 101.635612,68.326324 
	C101.967606,67.876289 102.174530,67.759773 102.685837,67.828316 
	C104.102425,68.207108 105.214638,68.400848 106.664337,68.638962 
	C109.374153,68.811890 111.746498,68.940453 114.561707,69.136566 
	C115.169998,69.274284 115.335411,69.344444 115.758026,69.334076 
	C117.050163,69.260704 118.085091,69.267860 119.500717,69.354973 
	C121.093048,70.579803 120.395050,71.469704 119.221481,72.547104 
z"/>
<path fill="#DDD4C3" opacity="1.000000" stroke="none" 
	d="
M176.609146,46.144386 
	C173.230392,49.124443 169.593521,50.935970 165.429840,52.559059 
	C164.103439,52.000874 163.453568,51.152382 163.460785,49.537743 
	C163.640106,48.874462 163.743729,48.618542 164.245728,48.249397 
	C168.583023,47.292461 171.536057,44.390179 175.594025,42.977654 
	C176.733978,43.665894 176.927963,44.603802 176.609146,46.144386 
z"/>
<path fill="#1A1104" opacity="1.000000" stroke="none" 
	d="
M153.208679,72.306030 
	C151.291260,72.501205 149.607605,72.878120 147.558731,73.255173 
	C147.139572,72.796242 147.085632,72.337173 147.019073,71.532425 
	C147.365158,69.508842 148.987640,69.201843 150.413300,68.163055 
	C151.168045,67.783401 151.624878,67.639229 152.460480,67.523193 
	C155.826523,66.830505 158.371658,64.685394 161.818710,65.042297 
	C162.020630,65.990288 162.007675,66.650291 161.991058,67.640358 
	C161.973541,69.137642 160.775589,69.563400 160.203735,70.739456 
	C159.492676,71.959267 158.762115,72.678345 157.318115,72.958298 
	C156.221970,72.284058 156.535889,71.394958 156.629578,70.538857 
	C156.452515,71.170380 156.516388,71.825172 156.232300,72.736404 
	C156.007935,73.004204 155.539642,73.048950 155.011902,73.036766 
	C154.099945,72.917358 153.754410,72.735130 153.208679,72.306030 
z"/>
<path fill="#C3AD7D" opacity="1.000000" stroke="none" 
	d="
M115.533012,7.003176 
	C113.522606,8.676365 112.024315,10.291818 113.722725,13.530834 
	C114.392044,14.807290 115.123322,16.981602 113.420464,18.849386 
	C112.146614,17.970091 111.123817,16.908415 109.989250,15.554762 
	C109.757835,14.911622 109.580399,14.593384 109.109039,14.156540 
	C108.881676,14.000012 108.983192,14.100999 108.938370,14.156326 
	C108.375076,11.429085 109.487045,9.032564 110.816742,6.351840 
	C112.357674,6.334532 113.764442,6.621214 115.533012,7.003176 
z"/>
<path fill="#E4E0D5" opacity="1.000000" stroke="none" 
	d="
M89.528214,104.623901 
	C90.258171,103.247803 89.853539,101.197220 91.645370,100.058121 
	C92.876465,102.480141 95.086288,101.803299 96.918030,101.903496 
	C99.442757,102.041595 102.027496,101.811378 104.103157,104.720337 
	C99.374741,104.720337 94.646324,104.720337 89.528214,104.623901 
z"/>
<path fill="#9E874D" opacity="1.000000" stroke="none" 
	d="
M187.060150,38.483582 
	C185.236816,40.141193 183.577362,41.504051 181.616440,42.969086 
	C179.203476,44.011482 178.424149,43.128044 178.722168,40.610714 
	C183.151474,38.226940 186.159393,34.369972 191.044174,31.596087 
	C190.492584,35.133846 187.705536,35.966805 187.060150,38.483582 
z"/>
<path fill="#D7D2C6" opacity="1.000000" stroke="none" 
	d="
M109.137619,58.650131 
	C104.838379,60.524464 100.663292,60.683716 95.820786,59.493904 
	C99.186562,55.680695 103.800240,57.785172 107.543137,55.900475 
	C108.992447,56.331120 109.348869,57.209995 109.137619,58.650131 
z"/>
<path fill="#120B02" opacity="1.000000" stroke="none" 
	d="
M86.425873,68.741104 
	C87.889160,68.827072 88.991631,68.876587 90.501389,68.852409 
	C90.935547,69.543518 90.962433,70.308319 90.989159,71.454201 
	C90.827538,71.881958 90.666084,71.928635 90.252563,71.983978 
	C87.574951,70.165077 84.744011,69.999374 81.455643,70.009537 
	C80.207878,68.769577 78.890556,69.100029 77.343399,68.971863 
	C76.168335,67.710426 74.841995,68.203186 73.366524,67.974548 
	C72.431839,66.863670 71.249985,67.093292 70.088051,66.556145 
	C70.876274,64.788612 72.273033,65.759102 73.898567,65.879257 
	C75.913773,66.135399 77.805038,64.941200 79.607712,66.689178 
	C82.260849,66.610252 84.064903,67.953293 86.425873,68.741104 
z"/>
<path fill="#1A1104" opacity="1.000000" stroke="none" 
	d="
M121.487183,80.405602 
	C125.989601,80.247475 130.122803,79.903351 134.733154,79.565964 
	C133.668686,81.393822 131.354645,81.724136 129.341797,81.784698 
	C121.579132,82.018242 113.805557,81.912086 106.036507,81.861626 
	C105.474350,81.857971 104.915886,81.286247 104.184486,80.640060 
	C104.125381,80.052628 104.237503,79.803772 104.657364,79.283707 
	C105.457817,78.764023 105.976341,78.594315 106.921829,78.405609 
	C108.426056,78.242760 109.502220,78.566956 111.013969,78.561989 
	C114.636681,79.248451 118.089371,78.472282 121.487183,80.405602 
z"/>
<path fill="#120B02" opacity="1.000000" stroke="none" 
	d="
M14.559261,62.505627 
	C13.922888,62.667770 13.298417,62.814762 12.358471,63.024498 
	C13.099421,59.549686 16.385103,59.199688 19.115417,58.728508 
	C25.953125,57.548512 32.867069,57.072449 39.837128,59.475975 
	C33.336193,59.780544 26.691252,58.236423 20.008879,59.964088 
	C18.715816,60.298393 17.634890,60.857300 16.219158,61.636513 
	C15.752395,62.230724 15.476791,62.485531 14.876968,62.582024 
	C14.609034,62.483143 14.571162,62.490475 14.559261,62.505627 
z"/>
<path fill="#080600" opacity="1.000000" stroke="none" 
	d="
M91.449692,5.611307 
	C90.592445,5.416596 90.122765,5.351071 89.313400,5.404881 
	C87.516945,5.506370 86.060173,5.488524 84.180428,5.583951 
	C82.859222,5.435437 81.964363,5.424888 80.732529,5.708447 
	C76.913071,5.499854 73.434875,5.316051 69.514465,5.203525 
	C67.590546,6.382951 66.065567,6.714628 64.227707,5.180708 
	C73.753662,3.246310 83.536453,3.922585 93.658493,4.694947 
	C93.443535,5.637581 92.703232,5.856286 91.449692,5.611307 
z"/>
<path fill="#C0A573" opacity="1.000000" stroke="none" 
	d="
M72.069061,100.054321 
	C75.975502,101.298325 73.584335,102.695412 72.143929,104.406143 
	C71.724106,104.775757 71.390335,104.943237 71.080414,104.906960 
	C68.398300,104.593079 63.721737,106.196335 63.479351,103.966034 
	C63.168407,101.104904 67.751099,102.971054 69.887833,101.795784 
	C70.593819,101.407471 71.183945,100.808517 72.069061,100.054321 
z"/>
<path fill="#CFC6B5" opacity="1.000000" stroke="none" 
	d="
M105.236771,79.774033 
	C104.847069,80.013138 104.682884,80.078293 104.265984,80.222466 
	C103.837883,80.230530 103.662491,80.159576 103.234634,79.959106 
	C102.991570,78.526939 103.000969,77.224274 102.998489,75.530983 
	C103.752243,75.095886 104.517891,75.051414 105.660919,75.084564 
	C106.191856,75.246262 106.345406,75.330322 106.732040,75.293442 
	C109.089767,75.303505 111.214401,75.434509 113.715012,75.701172 
	C115.089226,78.489792 111.206841,77.915474 111.149796,80.250664 
	C109.886604,80.455788 108.813965,80.406891 107.371140,80.195023 
	C106.586533,79.537346 106.045914,79.492096 105.236771,79.774033 
z"/>
<path fill="#967F49" opacity="1.000000" stroke="none" 
	d="
M162.215973,65.195992 
	C159.259521,66.523758 156.485443,67.717239 153.355804,68.944855 
	C151.949509,68.295441 151.189240,67.550072 152.683136,66.139061 
	C157.095123,64.586044 160.981613,62.257328 165.708618,62.629417 
	C165.384766,63.254299 164.897614,63.554981 164.192169,64.042015 
	C163.780655,64.343025 163.587448,64.457680 163.116180,64.762772 
	C162.838135,64.953201 162.398346,65.061714 162.215973,65.195992 
z"/>
<path fill="#9A804E" opacity="1.000000" stroke="none" 
	d="
M172.740936,52.218132 
	C176.386124,49.806602 179.850693,47.883972 183.676178,45.981907 
	C184.770325,47.040966 184.543091,47.890202 183.197189,48.775108 
	C182.576645,49.019562 182.328934,49.151443 182.011520,49.543259 
	C180.951691,52.740376 178.220886,53.376015 175.371078,54.359737 
	C175.005432,54.378510 174.729721,54.283550 174.616943,54.191147 
	C173.002274,54.827564 172.763641,53.791935 172.740936,52.218132 
z"/>
<path fill="#B3995E" opacity="1.000000" stroke="none" 
	d="
M114.581886,47.060585 
	C116.517677,48.865654 116.244926,50.993748 115.245438,53.114670 
	C114.767822,54.128189 113.917381,55.066566 115.790024,55.957069 
	C115.257286,56.633167 114.419792,57.208569 113.270798,57.823044 
	C111.149216,56.988762 109.441414,56.057053 110.726044,53.208321 
	C112.069954,50.991566 113.185539,49.114620 114.581886,47.060585 
z"/>
<path fill="#CBBD8F" opacity="1.000000" stroke="none" 
	d="
M10.216028,93.277794 
	C10.922667,92.966576 11.849365,92.901924 13.236763,92.773132 
	C16.691967,95.173271 19.686472,97.637558 22.680979,100.101845 
	C17.777121,99.361038 14.042466,96.559250 10.216028,93.277794 
z"/>
<path fill="#DBB77F" opacity="1.000000" stroke="none" 
	d="
M163.786667,48.786686 
	C164.333466,49.969349 164.660629,50.933510 165.024109,52.278748 
	C163.660721,53.316097 162.314682,54.149197 160.329163,53.996952 
	C158.469925,54.757111 156.938065,54.845669 155.119766,53.780842 
	C154.765778,53.222111 154.683197,52.964699 154.766434,52.337234 
	C154.932251,51.967186 154.969254,52.008694 154.974380,51.981373 
	C156.052155,50.820286 157.525742,50.607754 159.292542,50.195499 
	C159.987762,50.251175 160.308212,50.220993 160.819016,49.925419 
	C161.304306,49.637100 161.572601,49.465668 162.046616,49.178982 
	C162.267212,49.086983 162.680466,49.095432 162.850876,48.978512 
	C163.203201,48.763786 163.385117,48.665985 163.786667,48.786686 
z"/>
<path fill="#D2C28F" opacity="1.000000" stroke="none" 
	d="
M63.628635,4.922897 
	C65.458710,4.906846 66.918221,4.984292 68.724991,5.168271 
	C69.904205,6.372339 70.736168,7.469874 71.696114,8.891748 
	C68.919235,7.839997 65.796402,7.564396 62.651543,7.349767 
	C61.899364,7.298432 60.804428,7.261698 61.179134,6.024203 
	C61.460201,5.095968 62.453594,5.136095 63.628635,4.922897 
z"/>
<path fill="#2A231D" opacity="1.000000" stroke="none" 
	d="
M90.765617,78.357498 
	C91.338135,78.089073 91.604691,78.253365 91.910309,78.736511 
	C91.572021,83.390388 92.480667,87.883347 91.251411,92.644974 
	C90.286179,88.245239 90.059822,83.478867 90.765617,78.357498 
z"/>
<path fill="#DBCD98" opacity="1.000000" stroke="none" 
	d="
M150.060638,56.509216 
	C146.662506,58.543880 142.833740,57.308277 139.478058,58.775661 
	C138.529083,59.190624 137.628738,58.307766 137.683136,57.722851 
	C137.774551,56.739738 139.039337,57.214378 140.015427,56.717628 
	C140.306229,56.574760 140.335968,56.581791 140.345337,56.569839 
	C140.806595,54.708176 142.460617,55.855881 143.817535,55.387276 
	C144.604218,55.362915 145.013031,55.271904 145.702148,55.032482 
	C146.192429,54.741283 146.402390,54.598499 146.967010,54.314987 
	C148.802673,54.052826 149.780701,54.656620 150.060638,56.509216 
z"/>
<path fill="#1E1203" opacity="1.000000" stroke="none" 
	d="
M183.229828,48.958511 
	C183.390686,48.178493 183.915359,47.391022 184.238571,46.303009 
	C184.037109,46.002472 183.987823,45.999649 183.993744,46.023975 
	C184.487671,45.599865 185.074783,45.267498 185.703949,44.488052 
	C186.156891,43.362343 186.416534,42.506618 186.812012,41.343666 
	C188.501587,41.245422 190.698013,40.644558 189.999588,43.832619 
	C189.759598,44.241886 189.633041,44.366924 189.317764,44.680656 
	C187.284836,46.231152 186.298920,48.756969 183.229828,48.958511 
z"/>
<path fill="#EEC892" opacity="1.000000" stroke="none" 
	d="
M91.206955,5.769092 
	C91.800156,5.365434 92.538177,5.248746 93.637833,5.030107 
	C94.754913,4.994036 95.510353,5.059917 96.639656,5.200856 
	C97.046417,6.869190 97.079315,8.462466 97.067863,10.350378 
	C96.230957,10.694016 95.438416,10.743019 94.295692,10.532547 
	C94.392288,8.060836 92.612686,7.217965 91.206955,5.769092 
z"/>
<path fill="#1D150A" opacity="1.000000" stroke="none" 
	d="
M102.868164,67.659531 
	C102.990204,68.013367 102.575607,68.187897 102.352768,68.218407 
	C100.733665,69.269302 99.197449,68.235680 97.409889,68.697968 
	C96.049751,69.878769 95.288261,69.483948 94.875496,68.326324 
	C94.437828,67.098900 95.235184,66.291115 96.294533,66.243492 
	C98.491287,66.144722 100.915985,65.070320 102.868164,67.659531 
z"/>
<path fill="#C7B794" opacity="1.000000" stroke="none" 
	d="
M110.627167,52.937958 
	C111.001938,54.527592 111.456673,56.033150 112.787231,57.567738 
	C111.867828,58.258518 110.776360,58.654919 109.326836,59.020485 
	C108.661583,58.159035 108.354385,57.328423 107.990707,56.170116 
	C108.826607,54.984039 108.572937,53.169315 110.627167,52.937958 
z"/>
<path fill="#BEAF8C" opacity="1.000000" stroke="none" 
	d="
M178.621948,40.228966 
	C179.125366,41.328465 179.292511,42.497414 180.977692,42.996811 
	C179.917450,44.178177 178.519943,45.285091 176.810150,46.513180 
	C176.325714,45.704071 176.153549,44.773796 175.963593,43.369144 
	C176.739746,42.020504 177.533691,41.146240 178.621948,40.228966 
z"/>
<path fill="#1A1104" opacity="1.000000" stroke="none" 
	d="
M143.827026,77.882988 
	C146.224655,75.853020 149.645020,75.241577 153.060608,73.721985 
	C153.255447,72.842918 153.553131,72.517410 154.616959,72.773529 
	C154.979492,72.985626 155.027161,73.039970 155.049469,73.068954 
	C152.264374,76.488197 148.476776,77.677231 143.827026,77.882988 
z"/>
<path fill="#1E1203" opacity="1.000000" stroke="none" 
	d="
M175.012054,54.542259 
	C177.091095,52.915909 179.176743,51.453308 181.581268,49.857803 
	C182.298233,54.301289 178.671631,54.199104 175.418304,55.003292 
	C175.037643,55.033218 175.018661,54.706005 175.012054,54.542259 
z"/>
<path fill="#141105" opacity="1.000000" stroke="none" 
	d="
M147.332520,54.777786 
	C146.839447,54.992451 146.667206,54.978683 146.238708,54.924492 
	C146.226303,54.045269 144.758286,52.554359 146.970581,52.459377 
	C149.357773,52.356895 151.740341,52.146469 154.528595,51.975159 
	C154.932251,51.967186 154.663467,52.298389 154.555344,52.482216 
	C152.987549,56.197613 150.161636,54.800629 147.332520,54.777786 
z"/>
<path fill="#120B02" opacity="1.000000" stroke="none" 
	d="
M67.888519,65.551735 
	C66.007233,65.148705 63.687035,66.639420 61.849209,64.614594 
	C64.200417,62.263908 66.020622,63.570095 67.888519,65.551735 
z"/>
<path fill="#1A1104" opacity="1.000000" stroke="none" 
	d="
M135.881317,79.899475 
	C137.402985,78.282799 139.911774,78.367928 142.608215,77.737762 
	C141.786789,81.451973 138.670441,79.494148 135.881317,79.899475 
z"/>
<path fill="#EAC283" opacity="1.000000" stroke="none" 
	d="
M67.415291,72.889992 
	C69.250755,71.662148 71.307945,71.524445 72.959030,73.815231 
	C71.075668,74.140915 69.336052,74.018227 67.415291,72.889992 
z"/>
<path fill="#1F1608" opacity="1.000000" stroke="none" 
	d="
M160.306503,70.848480 
	C160.089066,69.868889 160.515198,68.949432 161.719055,68.137985 
	C162.653336,68.297119 163.927261,68.739082 163.890579,68.932587 
	C163.547440,70.742683 161.528366,69.742622 160.306503,70.848480 
z"/>
<path fill="#120B02" opacity="1.000000" stroke="none" 
	d="
M51.893692,61.633865 
	C50.249138,61.675285 48.493961,61.383175 46.381134,60.953049 
	C48.038925,59.842491 50.024559,59.223587 51.893692,61.633865 
z"/>
<path fill="#A99C7F" opacity="1.000000" stroke="none" 
	d="
M97.379013,68.922455 
	C98.226860,67.179947 99.901917,68.081306 101.753479,68.116951 
	C102.110886,68.608269 102.091850,68.967621 102.088654,69.596741 
	C101.655846,69.850227 101.207191,69.833939 100.420380,69.790581 
	C99.285187,69.507721 98.488159,69.251930 97.379013,68.922455 
z"/>
<path fill="#D0B77E" opacity="1.000000" stroke="none" 
	d="
M7.527625,80.661896 
	C5.915617,80.137718 5.654464,79.190712 7.512962,78.070679 
	C7.744016,78.761246 7.705163,79.530937 7.527625,80.661896 
z"/>
<path fill="#141105" opacity="1.000000" stroke="none" 
	d="
M159.241974,50.124672 
	C158.338501,50.746853 157.021469,51.337612 155.341980,51.941212 
	C155.569138,49.899666 157.210754,50.021198 159.241974,50.124672 
z"/>
<path fill="#B3995E" opacity="1.000000" stroke="none" 
	d="
M117.037262,41.402172 
	C118.341843,42.612797 117.804489,43.765907 116.066383,44.845490 
	C116.150101,43.887836 116.530678,42.804928 117.037262,41.402172 
z"/>
<path fill="#141105" opacity="1.000000" stroke="none" 
	d="
M143.986359,55.234238 
	C143.137756,55.804157 142.080078,56.154388 140.688568,56.531250 
	C140.940384,54.812202 142.179825,54.516384 143.986359,55.234238 
z"/>
<path fill="#CFC6B5" opacity="1.000000" stroke="none" 
	d="
M97.121941,79.188530 
	C97.407639,79.036018 97.874573,79.028671 98.539520,79.153320 
	C98.316475,80.993401 97.779922,79.276802 97.121941,79.188530 
z"/>
<path fill="#120B02" opacity="1.000000" stroke="none" 
	d="
M59.958054,63.636833 
	C59.455364,63.852684 58.873074,63.795242 58.044815,63.571243 
	C58.475159,62.537239 59.159893,62.095665 59.958054,63.636833 
z"/>
<path fill="#817150" opacity="1.000000" stroke="none" 
	d="
M193.334167,29.741428 
	C192.952454,31.204224 192.229340,32.456799 191.396774,32.038265 
	C190.161514,31.417294 191.249725,30.473541 192.122681,29.552198 
	C192.736359,29.304110 193.068970,29.274599 193.334167,29.741428 
z"/>
<path fill="#120B02" opacity="1.000000" stroke="none" 
	d="
M55.936783,62.640629 
	C55.438377,62.874680 54.859844,62.832336 54.027790,62.640667 
	C54.417839,61.620659 55.080090,61.056034 55.936783,62.640629 
z"/>
<path fill="#CBBD8F" opacity="1.000000" stroke="none" 
	d="
M24.810665,102.039612 
	C24.774309,102.022011 24.823572,102.236481 24.823572,102.236481 
	C24.823572,102.236481 24.847023,102.057205 24.810665,102.039612 
z"/>
<path fill="#C0A573" opacity="1.000000" stroke="none" 
	d="
M77.124069,103.990860 
	C77.491516,104.018272 77.361298,104.324997 77.235741,104.434448 
	C76.333183,104.646912 75.556190,104.749916 74.394501,104.759804 
	C74.925415,104.432266 75.841019,104.197853 77.124069,103.990860 
z"/>
<path fill="#D7BF82" opacity="1.000000" stroke="none" 
	d="
M17.334629,67.042625 
	C17.763269,66.675903 18.506176,66.299072 19.574814,65.935814 
	C19.149994,66.310432 18.399446,66.671471 17.334629,67.042625 
z"/>
<path fill="#1F1608" opacity="1.000000" stroke="none" 
	d="
M156.256851,73.008171 
	C156.166382,72.409714 155.655411,71.574013 156.631348,71.274094 
	C156.751953,71.675499 156.872574,72.076897 156.998428,72.743790 
	C157.003662,73.009285 156.505768,73.012138 156.256851,73.008171 
z"/>
<path fill="#D6CCB9" opacity="1.000000" stroke="none" 
	d="
M93.723328,10.241106 
	C93.945518,10.273072 93.904945,10.476083 93.880699,10.577389 
	C93.531624,10.756746 93.206787,10.834797 92.636459,10.868397 
	C92.761017,10.619011 93.131081,10.414075 93.723328,10.241106 
z"/>
<path fill="#D0B77E" opacity="1.000000" stroke="none" 
	d="
M9.084992,86.656509 
	C8.784244,86.463852 8.461215,85.969612 8.126885,85.169998 
	C8.431293,85.361389 8.747004,85.858147 9.084992,86.656509 
z"/>
<path fill="#D0B77E" opacity="1.000000" stroke="none" 
	d="
M8.139155,84.601601 
	C7.523387,84.605942 7.158231,84.167404 7.606965,83.230965 
	C7.871614,83.451019 8.000594,83.863472 8.139155,84.601601 
z"/>
<path fill="#817150" opacity="1.000000" stroke="none" 
	d="
M192.610962,29.567780 
	C192.738068,28.920248 193.072403,28.506884 193.847870,28.189032 
	C194.094360,28.813564 193.899734,29.342583 193.485931,30.054684 
	C193.117218,30.092489 192.967712,29.947216 192.610962,29.567780 
z"/>
<path fill="#D7BF82" opacity="1.000000" stroke="none" 
	d="
M35.239807,65.907990 
	C35.229927,65.550331 35.500893,65.502022 35.904655,65.789116 
	C35.829514,65.939972 35.657249,65.970909 35.239807,65.907990 
z"/>
<path fill="#291F0F" opacity="1.000000" stroke="none" 
	d="
M189.277130,44.767159 
	C189.247086,44.655670 189.400055,44.470947 189.737061,44.216015 
	C189.763550,44.325676 189.609909,44.508385 189.277130,44.767159 
z"/>
<path fill="#141105" opacity="1.000000" stroke="none" 
	d="
M164.189575,48.805420 
	C164.006302,49.005184 163.513657,48.934055 163.267471,48.897823 
	C163.365433,48.662483 163.709564,48.463371 164.348907,48.200218 
	C164.553680,48.292667 164.463257,48.449162 164.189575,48.805420 
z"/>
<path fill="#141105" opacity="1.000000" stroke="none" 
	d="
M162.036026,49.157833 
	C162.023239,49.315372 161.779251,49.543762 161.278229,49.778717 
	C161.241196,49.541748 161.502426,49.356216 162.036026,49.157833 
z"/>
<path fill="#B3995E" opacity="1.000000" stroke="none" 
	d="
M116.244919,56.044765 
	C116.126282,55.741585 116.349342,55.582062 116.804169,55.716351 
	C116.928993,55.808903 116.479660,55.987156 116.244919,56.044765 
z"/>
<path fill="#1F1608" opacity="1.000000" stroke="none" 
	d="
M163.057053,64.883194 
	C162.990082,64.664032 163.215210,64.452927 163.743698,64.274124 
	C163.790298,64.481857 163.557663,64.676796 163.057053,64.883194 
z"/>
<path fill="#120B02" opacity="1.000000" stroke="none" 
	d="
M9.983492,65.200714 
	C10.007086,65.368889 9.791879,65.673744 9.307867,66.077003 
	C9.274273,65.896065 9.509482,65.616737 9.983492,65.200714 
z"/>
<path fill="#D7BF82" opacity="1.000000" stroke="none" 
	d="
M20.305546,65.956711 
	C20.367348,65.750732 20.756874,65.567902 21.475695,65.411613 
	C21.414413,65.618721 21.023842,65.799286 20.305546,65.956711 
z"/>
<path fill="#817150" opacity="1.000000" stroke="none" 
	d="
M194.004944,27.996967 
	C194.090836,27.699623 194.271011,27.498537 194.451172,27.297451 
	C194.508545,27.536427 194.565918,27.775400 194.456146,28.149460 
	C194.288986,28.284546 194.099228,28.093222 194.004944,27.996967 
z"/>
<path fill="#120B02" opacity="1.000000" stroke="none" 
	d="
M8.945972,66.194092 
	C8.981151,66.356697 8.787001,66.678391 8.337065,67.129196 
	C8.293068,66.956604 8.504857,66.654900 8.945972,66.194092 
z"/>
<path fill="#D6CCB9" opacity="1.000000" stroke="none" 
	d="
M108.848343,14.313136 
	C109.119202,14.268592 109.356728,14.537172 109.735870,15.034267 
	C109.523331,15.050608 109.169174,14.838434 108.848343,14.313136 
z"/>
<path fill="#AD8D48" opacity="1.000000" stroke="none" 
	d="
M122.759705,10.043542 
	C122.953499,10.220829 122.492905,10.308879 122.492905,10.308879 
	C122.492905,10.308879 122.165108,9.994583 122.121338,9.833624 
	C122.240341,9.737195 122.403122,9.801724 122.759705,10.043542 
z"/>
<path fill="#120B02" opacity="1.000000" stroke="none" 
	d="
M5.828329,70.242744 
	C5.899470,70.419678 5.751070,70.825943 5.335509,71.427078 
	C5.248495,71.238663 5.428642,70.855370 5.828329,70.242744 
z"/>
<path fill="#D2C28F" opacity="1.000000" stroke="none" 
	d="
M71.867493,9.446417 
	C72.069557,9.398201 72.343796,9.612795 72.707581,10.075867 
	C72.511314,10.119305 72.225487,9.914267 71.867493,9.446417 
z"/>
<path fill="#F6CD76" opacity="1.000000" stroke="none" 
	d="
M85.383667,65.658485 
	C84.340973,65.950615 83.519974,65.941124 82.290237,65.889069 
	C80.826096,64.318100 80.648857,62.785667 80.703468,60.814472 
	C81.129776,45.426022 81.347870,30.025244 80.645683,14.638732 
	C80.449646,10.343049 81.707771,7.577252 86.648544,7.011847 
	C87.024910,24.437647 87.033501,41.860691 86.998604,59.283646 
	C86.994392,61.387203 87.542809,63.673237 85.383667,65.658485 
z"/>
<path fill="#D2C28F" opacity="1.000000" stroke="none" 
	d="
M80.722511,5.806382 
	C81.306129,5.588011 82.220993,5.492365 83.446655,5.546972 
	C82.856216,5.774519 81.954987,5.851813 80.722511,5.806382 
z"/>
<path fill="#D7BF82" opacity="1.000000" stroke="none" 
	d="
M14.870022,62.491280 
	C14.886460,62.289593 15.163887,62.096043 15.701845,61.904564 
	C15.685254,62.104229 15.408133,62.301823 14.870022,62.491280 
z"/>
<path fill="#EBD494" opacity="1.000000" stroke="none" 
	d="
M128.458923,65.126541 
	C126.582962,64.570808 124.564728,65.748314 123.444092,63.424683 
	C129.756592,62.652882 135.940445,61.896812 142.542450,61.184029 
	C143.850815,62.094761 143.975418,63.087212 143.203735,64.515533 
	C138.282654,64.915848 133.601639,64.987442 128.458923,65.126541 
z"/>
<path fill="#DDB87C" opacity="1.000000" stroke="none" 
	d="
M119.400871,72.881683 
	C119.222946,71.841965 119.497437,70.922272 119.826660,69.718750 
	C123.949959,69.284996 128.018509,69.135071 132.547913,69.052238 
	C134.176880,70.849640 133.963623,72.071892 131.411713,72.770844 
	C127.336937,72.990715 123.595116,72.996216 119.400871,72.881683 
z"/>
<path fill="#E0D8C6" opacity="1.000000" stroke="none" 
	d="
M131.514618,73.032669 
	C131.802505,71.970650 133.031982,71.249664 132.978149,69.442642 
	C137.050354,68.582230 141.091965,68.045113 145.586609,67.465767 
	C146.990005,69.098389 145.582352,69.752487 144.447769,70.950455 
	C140.287094,72.876923 136.116379,72.962135 131.514618,73.032669 
z"/>
<path fill="#E5DBCB" opacity="1.000000" stroke="none" 
	d="
M153.652588,59.278526 
	C156.981415,57.767406 160.118515,56.616184 163.622665,55.443344 
	C165.912888,55.740170 165.832092,56.967175 165.152435,58.660469 
	C161.588013,59.924561 158.699051,62.540550 154.458786,61.932003 
	C153.389832,61.241814 153.250320,60.487774 153.652588,59.278526 
z"/>
<path fill="#E6C07F" opacity="1.000000" stroke="none" 
	d="
M153.528473,58.932693 
	C153.899689,59.650928 153.955063,60.383228 154.036819,61.483017 
	C151.096512,64.475281 147.125900,63.657204 143.354034,64.851837 
	C142.966034,63.879776 142.968414,62.915287 142.965698,61.589058 
	C143.716278,61.145985 144.471954,61.064655 145.604401,60.923859 
	C146.431015,60.509590 146.889862,60.172657 147.770874,60.126678 
	C148.789993,60.090683 149.523926,60.036247 150.621033,59.919834 
	C151.727036,59.554161 152.469833,59.250462 153.528473,58.932693 
z"/>
<path fill="#BBA686" opacity="1.000000" stroke="none" 
	d="
M144.584290,71.306618 
	C144.717789,70.209061 145.197830,69.132904 145.858765,67.740143 
	C147.126648,67.171326 148.213654,66.919113 149.638458,66.630486 
	C150.804550,67.045532 151.051193,67.939110 151.647644,68.957123 
	C150.399246,69.809891 149.041946,70.355103 147.345551,71.043533 
	C146.314575,71.233841 145.622696,71.280930 144.584290,71.306618 
z"/>
<path fill="#BCA77D" opacity="1.000000" stroke="none" 
	d="
M172.585754,51.824364 
	C173.231247,52.394695 173.540909,53.060150 174.177368,53.912170 
	C173.193817,54.933929 171.883453,55.769119 170.247284,56.678989 
	C168.498260,56.653057 167.332550,56.281174 167.715286,54.140343 
	C169.353958,53.174454 170.801956,52.546970 172.585754,51.824364 
z"/>
<path fill="#C1B7A2" opacity="1.000000" stroke="none" 
	d="
M167.569183,53.910324 
	C168.070374,54.867405 168.599365,55.705814 169.699814,56.540012 
	C168.501968,57.488800 167.082489,58.223934 165.317566,58.948029 
	C164.705383,57.906013 164.438644,56.875042 164.080811,55.632904 
	C165.070618,54.954060 166.151520,54.486382 167.569183,53.910324 
z"/>
<path fill="#A68E60" opacity="1.000000" stroke="none" 
	d="
M151.975433,69.300690 
	C150.574448,69.102043 149.664886,68.688301 149.930725,66.913818 
	C150.751968,66.360443 151.527679,66.126816 152.611816,65.897995 
	C152.894150,66.759514 152.868011,67.616234 152.921051,68.725967 
	C152.762650,69.168198 152.494019,69.287445 151.975433,69.300690 
z"/>
<path fill="#DDB87C" opacity="1.000000" stroke="none" 
	d="
M115.766327,69.164360 
	C116.015228,69.253540 115.647820,69.520988 115.647820,69.520988 
	C115.647820,69.520988 115.203659,69.447548 115.104118,69.325836 
	C115.175522,69.161140 115.346466,69.118156 115.766327,69.164360 
z"/>
<path fill="#C2AF86" opacity="1.000000" stroke="none" 
	d="
M111.338028,80.633987 
	C108.622986,77.039459 112.470253,77.530754 113.866898,76.073730 
	C115.451141,75.848030 116.811295,75.859230 118.581459,75.842468 
	C120.085983,75.352272 121.220268,75.504250 122.633484,75.915703 
	C120.967804,77.022591 119.997665,78.121231 121.777939,80.329781 
	C118.476532,80.648827 115.096664,80.706062 111.338028,80.633987 
z"/>
<path fill="#402D11" opacity="1.000000" stroke="none" 
	d="
M123.373199,76.160217 
	C121.862740,76.164284 120.809219,76.094101 119.373581,75.919205 
	C124.080551,74.344322 129.283157,75.377007 134.925888,75.182144 
	C131.638824,76.623474 127.694389,75.798775 123.373199,76.160217 
z"/>
<path fill="#1F1608" opacity="1.000000" stroke="none" 
	d="
M146.768707,73.120193 
	C145.980637,73.758453 144.823395,74.357971 143.332214,74.923401 
	C143.471390,73.043747 144.896240,72.988777 146.768707,73.120193 
z"/>
<path fill="#DDB87C" opacity="1.000000" stroke="none" 
	d="
M114.324402,72.692535 
	C114.347626,72.018799 114.898911,71.884712 115.761322,72.281647 
	C115.509155,72.520386 115.081444,72.602119 114.324402,72.692535 
z"/>
<path fill="#E2DDD3" opacity="1.000000" stroke="none" 
	d="
M106.733963,75.120560 
	C106.965126,75.172501 106.627869,75.432480 106.627869,75.432480 
	C106.627869,75.432480 106.240646,75.368675 106.139473,75.265434 
	C106.038300,75.162193 106.502808,75.068619 106.733963,75.120560 
z"/>
<path fill="#1F1608" opacity="1.000000" stroke="none" 
	d="
M139.843613,74.670944 
	C139.956223,74.758781 139.498337,74.916107 139.257065,74.896255 
	C139.189789,74.594856 139.428192,74.497086 139.843613,74.670944 
z"/>
<path fill="#867041" opacity="1.000000" stroke="none" 
	d="
M154.869537,72.685440 
	C154.624557,73.124100 154.269623,73.262573 153.637741,73.469246 
	C153.289230,73.303886 153.217667,73.070335 153.060516,72.480530 
	C153.569809,72.211281 154.164703,72.298271 154.869537,72.685440 
z"/>
<path fill="#E0C27E" opacity="1.000000" stroke="none" 
	d="
M147.315369,55.058960 
	C149.252502,54.245464 151.493317,53.484699 154.090668,52.694992 
	C155.921661,53.458099 157.451599,54.052998 159.577759,53.997650 
	C157.465591,55.627762 154.529541,56.074238 151.353378,57.001549 
	C150.815933,57.083019 150.645660,57.047916 150.222809,56.947330 
	C149.471268,55.913532 148.720963,55.279083 147.315369,55.058960 
z"/>
<path fill="#291F0F" opacity="1.000000" stroke="none" 
	d="
M147.885895,59.952957 
	C147.818787,60.860687 147.245117,60.994389 146.286743,60.927818 
	C146.283661,60.063267 146.499939,59.126583 147.885895,59.952957 
z"/>
<path fill="#9A804E" opacity="1.000000" stroke="none" 
	d="
M185.636017,44.323807 
	C186.096207,45.315006 185.815338,46.137341 184.312775,46.243999 
	C184.458038,45.508717 184.916397,44.969128 185.636017,44.323807 
z"/>
<path fill="#E2DDD3" opacity="1.000000" stroke="none" 
	d="
M105.337082,80.038269 
	C105.488991,79.406403 106.005058,79.095718 106.834747,79.852448 
	C106.554947,80.064209 106.108925,80.096390 105.337082,80.038269 
z"/>
</svg>